<?xml version="1.0" encoding="iso-8859-1"?>
<!-- Generator: Adobe Illustrator 19.0.0, SVG Export Plug-In . SVG Version: 6.00 Build 0)  -->
<svg version="1.1" id="Capa_1" xmlns="http://www.w3.org/2000/svg" xmlns:xlink="http://www.w3.org/1999/xlink" x="0px" y="0px"
	 viewBox="0 0 512 512" style="enable-background:new 0 0 512 512;" xml:space="preserve">
<g>
	<path style="fill:#D9EEF7;" d="M501.333,149.333v256c-0.035,11.767-9.566,21.298-21.333,21.333H330.667L288,469.333v-42.667
		H138.667c-11.767-0.035-21.298-9.566-21.333-21.333v-64H192V384l42.667-42.667h138.667c11.767-0.035,21.298-9.566,21.333-21.333
		V128H480C491.768,128.035,501.298,137.566,501.333,149.333z"/>
	<circle style="fill:#D9EEF7;" cx="309.333" cy="192" r="21.333"/>
	<circle style="fill:#D9EEF7;" cx="202.667" cy="192" r="21.333"/>
	<circle style="fill:#D9EEF7;" cx="96" cy="192" r="21.333"/>
</g>
<path style="fill:#FFE451;" d="M394.667,128v192c-0.035,11.767-9.566,21.298-21.333,21.333H234.667L192,384v-42.667H32
	c-11.767-0.035-21.298-9.566-21.333-21.333V64C10.702,52.233,20.233,42.702,32,42.667h341.333
	c11.767,0.035,21.298,9.566,21.333,21.333V128z M330.667,192c0-11.782-9.551-21.333-21.333-21.333S288,180.218,288,192
	c0,11.782,9.551,21.333,21.333,21.333C321.101,213.298,330.632,203.767,330.667,192z M224,192c0-11.782-9.551-21.333-21.333-21.333
	s-21.333,9.551-21.333,21.333c0,11.782,9.551,21.333,21.333,21.333C214.434,213.298,223.965,203.767,224,192z M117.333,192
	c0-11.782-9.551-21.333-21.333-21.333S74.667,180.218,74.667,192c0,11.782,9.551,21.333,21.333,21.333
	C107.767,213.298,117.298,203.767,117.333,192z"/>
<g>
	<path style="fill:#4C5B66;" d="M288,480c-5.891,0-10.667-4.776-10.667-10.667v-32H138.667c-17.673,0-32-14.327-32-32v-32H128v32
		c0,5.891,4.776,10.667,10.667,10.667H288c5.891,0,10.667,4.776,10.667,10.667v16.917l24.459-24.459
		c2-2.001,4.713-3.125,7.541-3.125H480c5.891,0,10.667-4.776,10.667-10.667v-256c0-5.891-4.776-10.667-10.667-10.667h-53.333
		v-21.333H480c17.673,0,32,14.327,32,32v256c0,17.673-14.327,32-32,32H335.083l-39.541,39.541
		C293.541,478.875,290.829,479.999,288,480L288,480z"/>
	<path style="fill:#4C5B66;" d="M192,394.667c-5.891,0-10.667-4.776-10.667-10.667v-32H32c-17.673,0-32-14.327-32-32V64
		c0-17.673,14.327-32,32-32h341.333c17.673,0,32,14.327,32,32v256c0,17.673-14.327,32-32,32H239.083l-39.541,39.541
		C197.541,393.542,194.829,394.666,192,394.667L192,394.667z M32,53.333c-5.891,0-10.667,4.776-10.667,10.667v256
		c0,5.891,4.776,10.667,10.667,10.667h160c5.891,0,10.667,4.776,10.667,10.667v16.917l24.459-24.459
		c2-2.001,4.713-3.125,7.541-3.125h138.667c5.891,0,10.667-4.776,10.667-10.667V64c0-5.891-4.776-10.667-10.667-10.667H32z"/>
	<path style="fill:#4C5B66;" d="M202.667,224c-17.673,0-32-14.327-32-32s14.327-32,32-32s32,14.327,32,32S220.34,224,202.667,224z
		 M202.667,181.333c-5.891,0-10.667,4.776-10.667,10.667c0,5.891,4.776,10.667,10.667,10.667s10.667-4.776,10.667-10.667
		C213.333,186.109,208.558,181.333,202.667,181.333z"/>
	<path style="fill:#4C5B66;" d="M309.333,224c-17.673,0-32-14.327-32-32s14.327-32,32-32s32,14.327,32,32S327.006,224,309.333,224z
		 M309.333,181.333c-5.891,0-10.667,4.776-10.667,10.667c0,5.891,4.776,10.667,10.667,10.667S320,197.891,320,192
		C320,186.109,315.224,181.333,309.333,181.333z"/>
	<path style="fill:#4C5B66;" d="M96,224c-17.673,0-32-14.327-32-32s14.327-32,32-32s32,14.327,32,32S113.673,224,96,224z
		 M96,181.333c-5.891,0-10.667,4.776-10.667,10.667c0,5.891,4.776,10.667,10.667,10.667c5.891,0,10.667-4.776,10.667-10.667
		C106.667,186.109,101.891,181.333,96,181.333z"/>
</g>
<g>
</g>
<g>
</g>
<g>
</g>
<g>
</g>
<g>
</g>
<g>
</g>
<g>
</g>
<g>
</g>
<g>
</g>
<g>
</g>
<g>
</g>
<g>
</g>
<g>
</g>
<g>
</g>
<g>
</g>
</svg>
